<svg width="50" height="49" viewBox="0 0 50 49" fill="none" xmlns="http://www.w3.org/2000/svg">
<path d="M15.8854 25.5437C15.6297 25.7114 15.4099 25.9282 15.2386 26.1815C15.0673 26.4348 14.948 26.7195 14.8876 27.0192C14.8271 27.319 14.8268 27.6277 14.8865 27.9276C14.9462 28.2274 15.0649 28.5125 15.2356 28.7662C15.4062 29.0198 15.6256 29.2371 15.8808 29.4055C16.1361 29.5738 16.4222 29.6898 16.7226 29.7467C17.023 29.8037 17.3318 29.8004 17.6309 29.7372C17.9301 29.674 18.2137 29.552 18.4654 29.3784L21.1771 27.554L23.8888 25.7295C24.1445 25.5618 24.3643 25.345 24.5356 25.0917C24.7069 24.8385 24.8262 24.5537 24.8866 24.254C24.9471 23.9543 24.9474 23.6455 24.8877 23.3456C24.828 23.0458 24.7093 22.7607 24.5387 22.5071C24.368 22.2534 24.1487 22.0361 23.8934 21.8678C23.6381 21.6994 23.352 21.5835 23.0516 21.5265C22.7512 21.4696 22.4425 21.4728 22.1433 21.536C21.8442 21.5992 21.5605 21.7212 21.3089 21.8948L18.5971 23.7193L15.8854 25.5437ZM20.7221 26.8776L18.0103 28.7021C17.6811 28.9233 17.2776 29.0048 16.8883 28.9287C16.499 28.8525 16.1559 28.625 15.9344 28.296C15.7141 27.9665 15.6331 27.5632 15.7092 27.1743C15.7853 26.7853 16.0122 26.4422 16.3404 26.22L19.0522 24.3956L20.7221 26.8776Z" fill="#00214D"/>
<path d="M23.8581 29.4534C23.2517 29.4527 22.6571 29.6201 22.1401 29.937C21.6232 30.254 21.2042 30.7079 20.9296 31.2486C20.6551 31.7893 20.5358 32.3954 20.585 32.9998C20.6342 33.6041 20.8499 34.183 21.2083 34.6722L25.793 30.0874C25.2324 29.6747 24.5543 29.4525 23.8581 29.4534ZM26.5079 30.8023L21.9231 35.3871C22.555 35.8499 23.3316 36.0714 24.1126 36.0115C24.8936 35.9516 25.6273 35.6142 26.1812 35.0603C26.735 34.5065 27.0724 33.7727 27.1324 32.9918C27.1923 32.2108 26.9708 31.4341 26.5079 30.8023Z" fill="#00214D"/>
<path fill-rule="evenodd" clip-rule="evenodd" d="M35.4224 11.9393C35.9747 11.9393 36.4224 12.387 36.4224 12.9393V17.9431C37.3677 17.9431 38.2744 18.3325 38.9429 19.0258C39.6113 19.7191 39.9869 20.6595 39.9869 21.6399C39.9869 21.6558 39.9863 21.6717 39.9851 21.6874C39.9863 21.7227 39.9869 21.7582 39.9869 21.7939V39.8162C39.9869 40.5515 39.8617 41.2568 39.6389 41.7767C39.416 42.2967 39.1138 42.5888 38.7987 42.5888H29.2934C28.9783 42.5888 28.6761 42.2967 28.4532 41.7767C28.2304 41.2568 28.1052 40.5515 28.1052 39.8162V21.7939C28.1052 21.7582 28.1058 21.7226 28.107 21.6872C28.1058 21.6715 28.1052 21.6558 28.1052 21.6399C28.1052 20.6595 28.4808 19.7191 29.1493 19.0258C29.8177 18.3325 30.7244 17.9431 31.6697 17.9431V12.9393C31.6697 12.387 32.1174 11.9393 32.6697 11.9393H35.4224Z" fill="#00214D"/>
<mask id="path-4-outside-1_5_518" maskUnits="userSpaceOnUse" x="34.5796" y="11.6403" width="15" height="16" fill="black">
<rect fill="white" x="34.5796" y="11.6403" width="15" height="16"/>
<path fill-rule="evenodd" clip-rule="evenodd" d="M40.1464 24.078C40.1464 24.9952 40.8899 25.7387 41.807 25.7387C42.7242 25.7387 43.4677 24.9952 43.4677 24.078V20.9359H46.2882C47.2527 20.9359 48.0346 20.154 48.0346 19.1894C48.0346 18.2249 47.2527 17.443 46.2882 17.443H43.4677V14.3009C43.4677 13.3838 42.7242 12.6403 41.807 12.6403C40.8899 12.6403 40.1464 13.3838 40.1464 14.3009V17.443H37.326C36.3615 17.443 35.5796 18.2249 35.5796 19.1894C35.5796 20.154 36.3615 20.9359 37.326 20.9359H40.1464V24.078Z"/>
</mask>
<path fill-rule="evenodd" clip-rule="evenodd" d="M40.1464 24.078C40.1464 24.9952 40.8899 25.7387 41.807 25.7387C42.7242 25.7387 43.4677 24.9952 43.4677 24.078V20.9359H46.2882C47.2527 20.9359 48.0346 20.154 48.0346 19.1894C48.0346 18.2249 47.2527 17.443 46.2882 17.443H43.4677V14.3009C43.4677 13.3838 42.7242 12.6403 41.807 12.6403C40.8899 12.6403 40.1464 13.3838 40.1464 14.3009V17.443H37.326C36.3615 17.443 35.5796 18.2249 35.5796 19.1894C35.5796 20.154 36.3615 20.9359 37.326 20.9359H40.1464V24.078Z" fill="#00214D"/>
<path d="M43.4677 20.9359V19.9359H42.4677V20.9359H43.4677ZM43.4677 17.443H42.4677V18.443H43.4677V17.443ZM41.807 12.6403L41.807 13.6403L41.807 12.6403ZM40.1464 17.443V18.443H41.1464V17.443H40.1464ZM40.1464 20.9359H41.1464V19.9359H40.1464V20.9359ZM41.807 24.7387C41.4422 24.7387 41.1464 24.4429 41.1464 24.078H39.1464C39.1464 25.5474 40.3376 26.7387 41.807 26.7387V24.7387ZM42.4677 24.078C42.4677 24.4429 42.1719 24.7387 41.807 24.7387V26.7387C43.2765 26.7387 44.4677 25.5474 44.4677 24.078H42.4677ZM42.4677 20.9359V24.078H44.4677V20.9359H42.4677ZM46.2882 19.9359H43.4677V21.9359H46.2882V19.9359ZM47.0346 19.1894C47.0346 19.6017 46.7004 19.9359 46.2882 19.9359V21.9359C47.805 21.9359 49.0346 20.7063 49.0346 19.1894H47.0346ZM46.2882 18.443C46.7004 18.443 47.0346 18.7772 47.0346 19.1894H49.0346C49.0346 17.6726 47.805 16.443 46.2882 16.443V18.443ZM43.4677 18.443H46.2882V16.443H43.4677V18.443ZM42.4677 14.3009V17.443H44.4677V14.3009H42.4677ZM41.807 13.6403C42.1719 13.6403 42.4677 13.9361 42.4677 14.3009H44.4677C44.4677 12.8315 43.2765 11.6403 41.807 11.6403L41.807 13.6403ZM41.1464 14.3009C41.1464 13.9361 41.4422 13.6403 41.807 13.6403L41.807 11.6403C40.3376 11.6403 39.1464 12.8315 39.1464 14.3009H41.1464ZM41.1464 17.443V14.3009H39.1464V17.443H41.1464ZM37.326 18.443H40.1464V16.443H37.326V18.443ZM36.5796 19.1894C36.5796 18.7772 36.9138 18.443 37.326 18.443V16.443C35.8092 16.443 34.5796 17.6726 34.5796 19.1894H36.5796ZM37.326 19.9359C36.9138 19.9359 36.5796 19.6017 36.5796 19.1894H34.5796C34.5796 20.7063 35.8092 21.9359 37.326 21.9359V19.9359ZM40.1464 19.9359H37.326V21.9359H40.1464V19.9359ZM41.1464 24.078V20.9359H39.1464V24.078H41.1464Z" fill="white" mask="url(#path-4-outside-1_5_518)"/>
<path d="M11.9383 19.0507C11.8776 18.7813 12.0469 18.5138 12.3163 18.4531L15.3027 17.7809L15.8892 20.3866L12.9028 21.0588C12.6334 21.1195 12.3658 20.9502 12.3052 20.6808L11.9383 19.0507Z" fill="#00214D"/>
<path d="M15.7371 17.6832L28.712 14.7628C28.9814 14.7022 29.2489 14.8714 29.3096 15.1408L29.6765 16.7709C29.7371 17.0403 29.5679 17.3079 29.2985 17.3685L16.3236 20.2889L15.7371 17.6832Z" fill="#00214D"/>
<path d="M14.5464 10.1699L15.0978 11.4219C15.4023 12.1133 15.133 13.0035 14.4963 13.4102C13.8595 13.8169 13.5902 14.7071 13.8947 15.3985L14.4461 16.6505" stroke="#00214D" stroke-linejoin="round"/>
<path d="M12.1661 10.4533L12.9306 11.7697C13.3527 12.4967 13.0834 13.387 12.329 13.758C11.5746 14.1291 11.3053 15.0193 11.7275 15.7464L12.4919 17.0628" stroke="#00214D" stroke-linejoin="round"/>
<path d="M11.7028 28.5612C11.6142 28.4424 11.4455 28.4182 11.3259 28.5073L9.59351 29.798C9.47392 29.8871 9.44877 30.0557 9.53734 30.1746L10.382 31.3083C10.4706 31.4272 10.4454 31.5958 10.3258 31.6849L9.89274 32.0076C9.77315 32.0967 9.748 32.2653 9.83657 32.3841L15.9305 40.5634C16.0191 40.6823 16.1878 40.7064 16.3074 40.6173L19.7721 38.0359C19.8917 37.9468 19.9169 37.7782 19.8283 37.6593L13.7343 29.4801C13.6458 29.3612 13.477 29.3371 13.3574 29.4262L12.9244 29.7489C12.8048 29.838 12.636 29.8138 12.5474 29.6949L11.7028 28.5612Z" fill="#00214D"/>
<path d="M7.26184 25.3125C7.17328 25.1936 7.19843 25.025 7.31802 24.9359C7.43761 24.8468 7.60636 24.8709 7.69493 24.9898L10.3805 28.5944C10.4691 28.7133 10.444 28.8819 10.3244 28.971C10.2048 29.0601 10.036 29.036 9.94746 28.9171L7.26184 25.3125Z" fill="#00214D"/>
<path d="M19.7055 38.8852C19.6169 38.7663 19.4482 38.7422 19.3286 38.8313L17.1965 40.4198C17.0769 40.5089 17.0517 40.6775 17.1403 40.7964L18.4479 42.5515C18.5365 42.6703 18.5113 42.839 18.3917 42.9281L17.7254 43.4245C17.6058 43.5136 17.5807 43.6822 17.6692 43.801L17.8913 44.0991C17.9799 44.218 18.1486 44.2421 18.2682 44.153L22.5991 40.9263C22.7187 40.8372 22.7438 40.6686 22.6552 40.5497L22.4332 40.2517C22.3446 40.1328 22.1759 40.1087 22.0563 40.1978L21.39 40.6942C21.2704 40.7833 21.1017 40.7591 21.0131 40.6403L19.7055 38.8852Z" fill="#00214D"/>
<mask id="path-11-outside-2_5_518" maskUnits="userSpaceOnUse" x="-0.0344238" y="-1" width="46" height="50" fill="black">
<rect fill="white" x="-0.0344238" y="-1" width="46" height="50"/>
<path fill-rule="evenodd" clip-rule="evenodd" d="M33.9272 9.21664C30.1445 7.0459 25.5918 6.12316 20.9365 6.91133C10.4452 8.68759 3.40644 18.4808 5.21493 28.7852C7.02342 39.0895 16.9944 46.0028 27.4856 44.2266C34.2495 43.0814 39.5783 38.604 42.0264 32.8056C42.3297 32.0871 43.1072 31.669 43.8635 31.8749C44.6866 32.0991 45.1599 32.969 44.8362 33.7537C42.0434 40.5242 35.858 45.7648 27.9894 47.097C15.8841 49.1465 4.37919 41.1696 2.29247 29.28C0.205745 17.3904 8.32743 6.09045 20.4328 4.04092C25.528 3.17824 30.5169 4.09193 34.7419 6.32605L33.1535 3.10858C32.7913 2.37474 33.0949 1.49538 33.8318 1.14445C34.5687 0.79353 35.4597 1.10394 35.822 1.83778L39.2542 8.79028C39.4328 9.15201 39.4496 9.54909 39.3324 9.90082C39.197 10.3296 38.8632 10.6879 38.4008 10.8373L30.8436 13.2794C30.0782 13.5268 29.2502 13.1079 28.9942 12.3439C28.7383 11.5799 29.1513 10.76 29.9168 10.5126L33.9272 9.21664Z"/>
</mask>
<path fill-rule="evenodd" clip-rule="evenodd" d="M33.9272 9.21664C30.1445 7.0459 25.5918 6.12316 20.9365 6.91133C10.4452 8.68759 3.40644 18.4808 5.21493 28.7852C7.02342 39.0895 16.9944 46.0028 27.4856 44.2266C34.2495 43.0814 39.5783 38.604 42.0264 32.8056C42.3297 32.0871 43.1072 31.669 43.8635 31.8749C44.6866 32.0991 45.1599 32.969 44.8362 33.7537C42.0434 40.5242 35.858 45.7648 27.9894 47.097C15.8841 49.1465 4.37919 41.1696 2.29247 29.28C0.205745 17.3904 8.32743 6.09045 20.4328 4.04092C25.528 3.17824 30.5169 4.09193 34.7419 6.32605L33.1535 3.10858C32.7913 2.37474 33.0949 1.49538 33.8318 1.14445C34.5687 0.79353 35.4597 1.10394 35.822 1.83778L39.2542 8.79028C39.4328 9.15201 39.4496 9.54909 39.3324 9.90082C39.197 10.3296 38.8632 10.6879 38.4008 10.8373L30.8436 13.2794C30.0782 13.5268 29.2502 13.1079 28.9942 12.3439C28.7383 11.5799 29.1513 10.76 29.9168 10.5126L33.9272 9.21664Z" fill="#00214D"/>
<path d="M33.9272 9.21664L34.2347 10.1682L36.3841 9.4736L34.425 8.3493L33.9272 9.21664ZM20.9365 6.91133L20.7696 5.92536L20.7696 5.92536L20.9365 6.91133ZM5.21493 28.7852L6.19987 28.6123L5.21493 28.7852ZM27.4856 44.2266L27.6526 45.2125L27.6526 45.2125L27.4856 44.2266ZM42.0264 32.8056L42.9476 33.1946L42.9476 33.1946L42.0264 32.8056ZM43.8635 31.8749L44.1263 30.9101L44.1263 30.9101L43.8635 31.8749ZM44.8362 33.7537L45.7606 34.135L45.7606 34.135L44.8362 33.7537ZM27.9894 47.097L27.8225 46.111L27.8225 46.111L27.9894 47.097ZM2.29247 29.28L3.27741 29.1071L3.27741 29.1071L2.29247 29.28ZM20.4328 4.04092L20.2658 3.05495L20.2658 3.05495L20.4328 4.04092ZM34.7419 6.32605L34.2744 7.21007L37.0068 8.65492L35.6386 5.88338L34.7419 6.32605ZM33.1535 3.10858L34.0502 2.66591L34.0502 2.66591L33.1535 3.10858ZM33.8318 1.14445L34.2618 2.0473L34.2618 2.0473L33.8318 1.14445ZM35.822 1.83778L34.9253 2.28044L34.9253 2.28044L35.822 1.83778ZM39.2542 8.79028L38.3575 9.23295L38.3575 9.23295L39.2542 8.79028ZM39.3324 9.90082L38.3837 9.58477L38.3812 9.59219L38.3788 9.59965L39.3324 9.90082ZM38.4008 10.8373L38.7083 11.7889L38.7083 11.7889L38.4008 10.8373ZM30.8436 13.2794L30.5361 12.3279L30.5361 12.3279L30.8436 13.2794ZM28.9942 12.3439L28.046 12.6615L28.046 12.6615L28.9942 12.3439ZM29.9168 10.5126L29.6093 9.56106L29.6093 9.56107L29.9168 10.5126ZM34.425 8.3493C30.4478 6.06695 25.6608 5.09723 20.7696 5.92536L21.1034 7.8973C25.5227 7.14908 29.8413 8.02485 33.4295 10.084L34.425 8.3493ZM20.7696 5.92536C9.7474 7.79151 2.32284 18.0916 4.22998 28.958L6.19987 28.6123C4.49003 18.8701 11.1431 9.58368 21.1034 7.8973L20.7696 5.92536ZM4.22998 28.958C6.13626 39.8195 16.6347 47.078 27.6526 45.2125L27.3187 43.2406C17.354 44.9277 7.91058 38.3594 6.19987 28.6123L4.22998 28.958ZM27.6526 45.2125C34.7613 44.009 40.3698 39.3002 42.9476 33.1946L41.1051 32.4167C38.7868 37.9077 33.7377 42.1538 27.3187 43.2406L27.6526 45.2125ZM42.9476 33.1946C43.0727 32.8985 43.3674 32.7762 43.6008 32.8398L44.1263 30.9101C42.847 30.5617 41.5868 31.2758 41.1051 32.4167L42.9476 33.1946ZM43.6008 32.8398C43.8971 32.9205 43.9851 33.1946 43.9117 33.3724L45.7606 34.135C46.3346 32.7435 45.4762 31.2777 44.1263 30.9101L43.6008 32.8398ZM43.9117 33.3724C41.2473 39.8317 35.3434 44.8377 27.8225 46.111L28.1564 48.0829C36.3726 46.6919 42.8395 41.2166 45.7606 34.135L43.9117 33.3724ZM27.8225 46.111C16.2437 48.0714 5.26634 40.4395 3.27741 29.1071L1.30752 29.4528C3.49203 41.8996 15.5245 50.2216 28.1564 48.0829L27.8225 46.111ZM3.27741 29.1071C1.28934 17.7796 9.02526 6.98654 20.5997 5.02689L20.2658 3.05495C7.6296 5.19437 -0.877853 17.0011 1.30752 29.4528L3.27741 29.1071ZM20.5997 5.02689C25.4713 4.20209 30.2378 5.07553 34.2744 7.21007L35.2094 5.44204C30.7961 3.10833 25.5848 2.1544 20.2658 3.05495L20.5997 5.02689ZM35.6386 5.88338L34.0502 2.66591L32.2568 3.55125L33.8452 6.76872L35.6386 5.88338ZM34.0502 2.66591C33.9337 2.42991 34.0309 2.15726 34.2618 2.0473L33.4018 0.241607C32.159 0.83349 31.6488 2.31958 32.2568 3.55125L34.0502 2.66591ZM34.2618 2.0473C34.5027 1.93255 34.8039 2.03465 34.9253 2.28044L36.7187 1.39511C36.1155 0.173232 34.6346 -0.345488 33.4018 0.241607L34.2618 2.0473ZM34.9253 2.28044L38.3575 9.23295L40.1509 8.34762L36.7187 1.39511L34.9253 2.28044ZM38.3575 9.23295C38.416 9.35128 38.4202 9.4752 38.3837 9.58477L40.2811 10.2169C40.479 9.62298 40.4496 8.95273 40.1509 8.34761L38.3575 9.23295ZM38.3788 9.59965C38.3371 9.73167 38.2362 9.83962 38.0933 9.88579L38.7083 11.7889C39.4902 11.5362 40.0568 10.9275 40.286 10.202L38.3788 9.59965ZM38.0933 9.88579L30.5361 12.3279L31.1511 14.231L38.7083 11.7889L38.0933 9.88579ZM30.5361 12.3279C30.2937 12.4062 30.0248 12.272 29.9424 12.0263L28.046 12.6615C28.4756 13.9438 29.8626 14.6474 31.1511 14.231L30.5361 12.3279ZM29.9424 12.0263C29.8627 11.7883 29.9898 11.5399 30.2243 11.4642L29.6093 9.56107C28.3128 9.98002 27.6138 11.3714 28.046 12.6615L29.9424 12.0263ZM30.2243 11.4642L34.2347 10.1682L33.6197 8.26509L29.6093 9.56106L30.2243 11.4642Z" fill="white" mask="url(#path-11-outside-2_5_518)"/>
</svg>
