<?xml version="1.0" standalone="no"?>
<!DOCTYPE svg PUBLIC "-//W3C//DTD SVG 20010904//EN"
 "http://www.w3.org/TR/2001/REC-SVG-20010904/DTD/svg10.dtd">
<svg version="1.0" xmlns="http://www.w3.org/2000/svg"
 width="326.000000pt" height="154.000000pt" viewBox="0 0 326.000000 154.000000"
 preserveAspectRatio="xMidYMid meet">

<g transform="translate(0.000000,154.000000) scale(0.100000,-0.100000)"
fill="#000000" stroke="none">
<path d="M1503 1336 c-213 -49 -383 -213 -438 -423 -8 -31 -15 -96 -15 -143 0
-163 53 -293 165 -406 233 -235 597 -234 830 1 112 112 165 243 165 403 0 251
-153 466 -389 548 -92 32 -227 40 -318 20z m262 -21 c190 -49 346 -196 406
-385 32 -99 30 -232 -5 -333 -81 -238 -290 -389 -536 -389 -160 0 -296 58
-407 176 -108 114 -157 236 -157 391 1 249 178 474 424 539 73 19 201 20 275
1z"/>
<path d="M1540 1311 c0 -7 -4 -9 -10 -6 -12 7 -24 -39 -16 -61 8 -21 60 -15
64 8 2 10 -6 30 -17 44 -12 15 -21 21 -21 15z m24 -37 c7 -19 -1 -34 -19 -34
-18 0 -28 17 -21 35 7 20 32 19 40 -1z"/>
<path d="M1601 1268 c1 -24 3 -35 6 -25 6 21 12 21 35 0 10 -9 18 -11 18 -5 0
6 -5 14 -10 17 -8 5 -7 12 1 22 10 12 10 16 -2 24 -8 5 -22 9 -31 9 -15 0 -18
-8 -17 -42z m39 22 c0 -5 -7 -10 -16 -10 -8 0 -12 5 -9 10 3 6 10 10 16 10 5
0 9 -4 9 -10z"/>
<path d="M1702 1299 c-35 -13 -27 -63 10 -67 32 -4 46 28 26 57 -10 14 -18 16
-36 10z m28 -34 c0 -18 -5 -25 -20 -25 -20 0 -28 28 -13 43 15 16 33 6 33 -18z"/>
<path d="M1476 1279 c-12 -39 -15 -69 -7 -69 10 0 25 69 17 77 -3 3 -8 0 -10
-8z"/>
<path d="M1770 1269 c0 -7 7 -21 17 -31 14 -16 14 -18 0 -18 -8 0 -18 6 -20
13 -3 7 -6 5 -6 -5 -1 -13 7 -18 24 -18 29 0 32 16 8 42 -18 20 -5 25 16 6 11
-11 13 -10 9 2 -6 18 -48 26 -48 9z"/>
<path d="M1435 1250 c10 -11 20 -18 23 -15 7 6 -18 35 -31 35 -5 0 -2 -9 8
-20z"/>
<path d="M1837 1229 c-10 -18 -15 -34 -11 -38 4 -3 9 0 11 7 7 19 23 14 23 -8
0 -11 4 -20 9 -20 5 0 7 9 4 20 -4 13 1 26 13 35 23 17 11 20 -18 4 -18 -9
-19 -8 -13 10 9 30 3 26 -18 -10z"/>
<path d="M1332 1218 c-8 -11 -5 -21 14 -43 22 -27 24 -28 19 -7 -6 21 -4 22
22 17 21 -5 24 -4 13 4 -8 6 -15 16 -15 23 0 18 -39 22 -53 6z m38 -6 c0 -13
-12 -22 -22 -16 -10 6 -1 24 13 24 5 0 9 -4 9 -8z"/>
<path d="M1903 1184 c-16 -25 -16 -27 2 -40 10 -8 24 -14 29 -14 6 0 3 5 -6
11 -26 14 -22 32 5 24 20 -6 21 -5 5 8 -23 18 -11 29 16 15 19 -10 20 -10 7 5
-19 24 -38 21 -58 -9z"/>
<path d="M1276 1171 c-7 -10 16 -71 26 -71 4 0 5 6 2 14 -3 9 4 17 21 23 l27
9 -36 16 c-19 10 -38 14 -40 9z m29 -21 c3 -5 1 -10 -4 -10 -6 0 -11 5 -11 10
0 6 2 10 4 10 3 0 8 -4 11 -10z"/>
<path d="M1959 1134 l-24 -26 23 6 c19 6 22 4 23 -21 2 -24 2 -24 6 -5 2 12 8
20 12 18 4 -3 13 -1 21 4 12 7 11 12 -4 29 -24 27 -28 26 -57 -5z m48 -10 c-9
-9 -28 6 -21 18 4 6 10 6 17 -1 6 -6 8 -13 4 -17z"/>
<path d="M1240 1132 c0 -14 -6 -22 -17 -22 -11 -1 -4 -8 17 -19 19 -9 36 -17
37 -16 2 1 -6 19 -17 40 -16 31 -20 34 -20 17z"/>
<path d="M1520 995 l0 -115 -115 0 -115 0 0 -110 0 -109 113 -3 112 -3 3 -112
3 -113 109 0 109 0 3 112 3 113 113 3 112 3 0 109 0 110 -115 0 -115 0 0 115
0 115 -110 0 -110 0 0 -115z"/>
<path d="M2023 1083 c-27 -18 -29 -35 -8 -53 17 -14 21 0 4 17 -8 8 -8 13 0
18 6 3 14 -1 17 -9 3 -9 11 -16 16 -16 6 0 5 7 -2 15 -17 21 -5 31 16 14 16
-13 16 -12 5 9 -14 26 -18 26 -48 5z"/>
<path d="M1177 1063 c-4 -3 -7 -17 -7 -29 0 -17 7 -25 24 -30 31 -7 46 1 46
26 0 20 -17 36 -28 25 -3 -3 0 -10 8 -15 20 -12 0 -33 -23 -24 -20 7 -22 25
-5 42 7 7 8 12 2 12 -6 0 -14 -3 -17 -7z"/>
<path d="M2072 1006 c4 -18 1 -26 -9 -26 -9 0 -13 6 -9 15 3 8 1 15 -4 15 -15
0 -12 -26 5 -40 20 -17 38 -2 31 26 -4 13 -2 24 3 24 5 0 12 -10 14 -22 5 -20
5 -20 4 2 -1 16 -9 26 -21 28 -15 3 -18 -1 -14 -22z"/>
<path d="M1130 972 c0 -10 43 -52 53 -52 3 0 4 7 0 16 -4 11 1 22 12 30 17 13
15 14 -23 14 -23 0 -42 -4 -42 -8z m40 -12 c0 -5 -2 -10 -4 -10 -3 0 -8 5 -11
10 -3 6 -1 10 4 10 6 0 11 -4 11 -10z"/>
<path d="M2126 945 c5 -12 1 -13 -26 -4 -17 6 -33 10 -35 8 -2 -2 3 -17 11
-34 9 -20 12 -22 8 -7 -5 22 -4 23 29 17 33 -6 35 -5 30 14 -3 12 -9 21 -14
21 -5 0 -6 -7 -3 -15z"/>
<path d="M1110 909 c0 -7 8 -18 18 -25 16 -12 15 -13 -5 -14 -13 0 -23 -4 -23
-9 0 -12 26 -21 53 -20 20 1 20 2 -3 9 -24 8 -24 8 -2 9 26 1 29 16 5 31 -15
9 -14 10 7 4 16 -4 22 -3 15 4 -16 16 -65 24 -65 11z"/>
<path d="M2146 885 c-3 -8 -17 -15 -31 -15 -14 0 -25 -5 -25 -10 0 -6 11 -8
26 -4 17 4 29 2 35 -7 6 -10 9 -4 9 19 0 35 -5 41 -14 17z"/>
<path d="M1120 766 c0 -13 -5 -16 -16 -12 -14 5 -15 4 -5 -8 7 -8 11 -19 8
-23 -3 -4 6 -8 19 -8 14 0 22 5 20 11 -2 6 1 17 7 24 9 10 9 11 0 6 -6 -3 -16
2 -22 11 -10 17 -10 17 -11 -1z"/>
<path d="M2120 760 c0 -7 -6 -10 -14 -7 -10 4 -11 1 -3 -17 10 -21 51 -32 44
-11 -2 5 3 16 12 23 9 8 10 11 3 7 -7 -4 -19 -1 -27 5 -12 10 -15 10 -15 0z"/>
<path d="M2062 638 c-29 -29 -2 -60 29 -32 23 21 38 11 18 -12 -12 -15 -12
-17 1 -12 19 6 25 37 11 51 -7 7 -16 5 -31 -8 -11 -10 -23 -15 -27 -11 -4 4
-1 11 7 16 8 5 12 11 9 14 -3 3 -11 0 -17 -6z"/>
<path d="M1158 628 c-32 -11 -38 -29 -8 -21 14 4 20 0 20 -11 0 -9 -4 -16 -10
-16 -5 0 -10 -4 -10 -10 0 -6 9 -6 26 1 36 13 40 6 9 -15 -21 -14 -24 -20 -14
-37 10 -20 17 -21 64 -4 14 5 12 1 -7 -15 -16 -12 -28 -26 -28 -32 0 -6 10 -3
21 8 l21 19 -7 -32 c-8 -37 0 -41 33 -14 28 24 29 35 1 20 -19 -10 -20 -8 -14
10 3 12 4 30 0 41 -6 18 -8 19 -35 5 -21 -11 -31 -12 -36 -3 -6 10 15 33 38
40 5 2 6 11 2 21 -4 12 -13 16 -25 12 -22 -7 -26 14 -7 33 14 14 3 14 -34 0z"/>
<path d="M2030 570 c-6 -11 -8 -24 -5 -29 3 -5 -3 -12 -14 -16 -27 -8 -32 -29
-15 -54 19 -27 50 -27 64 0 9 16 8 24 -4 38 -14 15 -14 19 4 34 25 21 30 21
30 2 0 -8 -4 -15 -10 -15 -5 0 -10 -5 -10 -11 0 -8 5 -8 15 1 22 18 19 50 -5
50 -11 0 -20 5 -20 10 0 17 -19 11 -30 -10z m30 -4 c0 -3 -4 -8 -10 -11 -5 -3
-10 -1 -10 4 0 6 5 11 10 11 6 0 10 -2 10 -4z m-13 -72 c9 -23 -13 -40 -32
-24 -8 7 -15 19 -15 26 0 19 39 18 47 -2z"/>
<path d="M1943 447 c-10 -13 -26 -26 -36 -30 -28 -11 -32 -37 -8 -60 17 -17
25 -19 39 -11 9 6 18 20 20 30 3 17 1 16 -15 -4 -15 -18 -21 -20 -31 -10 -18
18 -15 36 9 49 17 9 25 7 45 -12 24 -22 35 -14 12 9 -9 9 -4 12 23 12 30 1 32
2 14 12 -11 6 -24 17 -28 25 -11 19 -23 16 -44 -10z m28 -10 c-13 -13 -26 -3
-16 12 3 6 11 8 17 5 6 -4 6 -10 -1 -17z"/>
<path d="M1272 438 c-19 -19 -14 -46 9 -59 24 -12 46 1 34 21 -6 9 -10 9 -16
-1 -6 -11 -11 -11 -20 -2 -9 9 -9 16 1 28 17 20 36 19 50 -2 11 -17 11 -17 6
0 -3 10 -6 21 -6 23 0 9 -47 3 -58 -8z"/>
<path d="M1338 382 c-29 -18 -39 -38 -13 -28 8 3 21 -4 29 -15 13 -20 14 -20
19 -2 3 10 8 28 12 41 8 26 -7 28 -47 4z m32 -12 c0 -5 -4 -10 -10 -10 -5 0
-10 5 -10 10 0 6 5 10 10 10 6 0 10 -4 10 -10z"/>
<path d="M1394 344 c-8 -20 -13 -39 -10 -42 3 -2 8 3 12 12 9 22 24 20 24 -3
0 -11 5 -23 12 -27 7 -5 9 0 6 14 -4 13 0 23 8 26 22 9 16 32 -12 44 -23 11
-26 10 -40 -24z m40 10 c9 -3 14 -10 11 -15 -7 -10 -35 0 -35 12 0 11 3 11 24
3z"/>
<path d="M1806 357 c-17 -13 -17 -15 -2 -45 14 -28 19 -31 37 -22 29 16 34 38
14 60 -21 24 -26 24 -49 7z m41 -23 c8 -22 -15 -43 -27 -24 -5 8 -10 21 -10
28 0 17 30 15 37 -4z"/>
<path d="M1463 315 c-14 -44 1 -47 16 -4 13 38 13 39 3 39 -5 0 -13 -16 -19
-35z"/>
<path d="M1752 343 c-20 -4 -22 -9 -17 -36 4 -18 10 -35 14 -39 8 -9 51 1 51
12 0 5 -9 6 -20 3 -25 -7 -26 5 -2 24 16 13 15 14 -5 8 -27 -8 -30 3 -5 21 9
7 15 13 12 12 -3 0 -15 -3 -28 -5z"/>
<path d="M1501 312 c-26 -37 -26 -41 -1 -35 12 3 22 -1 26 -11 12 -30 23 -16
17 22 -8 52 -17 58 -42 24z m29 -12 c0 -5 -4 -10 -10 -10 -5 0 -10 5 -10 10 0
6 5 10 10 10 6 0 10 -4 10 -10z"/>
<path d="M1567 323 c-4 -3 -6 -22 -6 -42 1 -23 3 -28 6 -13 6 29 17 28 32 -4
6 -15 13 -25 15 -23 9 11 13 79 5 79 -5 0 -9 -10 -9 -22 -1 -22 -2 -21 -16 5
-16 29 -17 30 -27 20z"/>
<path d="M1664 315 c-3 -8 -1 -27 4 -42 7 -18 11 -21 11 -10 1 21 9 22 33 0
10 -9 18 -11 18 -5 0 6 -4 13 -9 16 -4 3 -6 17 -3 31 4 22 1 25 -22 25 -15 0
-29 -7 -32 -15z m44 -7 c-6 -18 -28 -21 -28 -4 0 9 7 16 16 16 9 0 14 -5 12
-12z"/>
</g>
</svg>
