<?xml version="1.0" standalone="no"?>
<!DOCTYPE svg PUBLIC "-//W3C//DTD SVG 20010904//EN"
 "http://www.w3.org/TR/2001/REC-SVG-20010904/DTD/svg10.dtd">
<svg version="1.0" xmlns="http://www.w3.org/2000/svg"
 width="512.000000pt" height="512.000000pt" viewBox="0 0 512.000000 512.000000"
 preserveAspectRatio="xMidYMid meet">

<g transform="translate(0.000000,512.000000) scale(0.100000,-0.100000)"
fill="#000000" stroke="none">
<path d="M2340 5109 c-585 -50 -1134 -302 -1559 -714 -617 -599 -892 -1456
-736 -2298 97 -528 348 -996 736 -1372 906 -880 2305 -967 3319 -207 769 577
1150 1556 975 2505 -194 1049 -1023 1873 -2070 2055 -224 39 -448 50 -665 31z
m171 -1025 c187 -55 318 -201 351 -391 37 -221 -98 -445 -320 -525 -81 -29
-224 -29 -306 1 -237 85 -372 330 -311 564 44 168 179 307 344 353 65 17 178
17 242 -2z m-636 -591 c19 -107 104 -231 208 -304 102 -72 177 -94 312 -93 94
0 120 4 178 27 156 61 280 192 323 341 l19 66 57 0 c31 0 69 -5 85 -11 66 -25
113 -99 113 -179 0 -49 -239 -1332 -261 -1397 -13 -41 -68 -89 -116 -102 -51
-14 -628 -15 -654 -1 -46 25 -12 30 224 30 222 0 245 2 274 20 97 59 84 221
-22 266 l-32 13 68 353 c38 194 68 361 69 371 0 20 -27 34 -41 20 -5 -5 -36
-151 -69 -324 -33 -173 -65 -338 -71 -366 l-10 -53 -147 0 -147 0 -70 376
c-38 207 -75 384 -82 393 -10 14 -13 14 -27 1 -14 -14 -8 -56 59 -413 41 -219
77 -402 80 -408 4 -5 91 -9 204 -9 l198 0 27 -26 c38 -38 36 -95 -3 -135 l-29
-29 -294 0 c-335 0 -375 6 -426 64 -17 19 -33 43 -36 53 -5 16 -148 803 -211
1164 -27 153 -23 199 22 257 41 54 79 72 154 72 l67 0 7 -37z m2438 -1370 c89
-42 168 -121 210 -210 30 -64 32 -75 32 -178 0 -103 -2 -114 -32 -178 -42 -89
-121 -168 -210 -210 -64 -30 -75 -32 -179 -32 -107 0 -112 1 -185 37 -93 46
-158 112 -202 206 -30 63 -32 74 -32 177 0 103 2 114 32 177 53 113 137 187
258 231 38 13 73 17 145 14 82 -2 104 -7 163 -34z m-2393 -233 c30 -11 70 -19
89 -20 26 0 41 -9 70 -41 24 -27 49 -43 76 -49 49 -12 471 -12 576 -1 96 10
163 41 198 93 l26 38 200 -2 c186 -3 204 -5 253 -27 72 -33 143 -112 167 -186
44 -140 -21 -286 -157 -355 l-61 -30 -1177 0 -1177 0 -61 31 c-163 81 -218
280 -119 426 42 61 94 101 159 124 48 17 92 18 468 18 385 0 419 -1 470 -19z"/>
</g>
</svg>
