<?xml version="1.0" standalone="no"?>
<!DOCTYPE svg PUBLIC "-//W3C//DTD SVG 20010904//EN"
 "http://www.w3.org/TR/2001/REC-SVG-20010904/DTD/svg10.dtd">
<svg version="1.0" xmlns="http://www.w3.org/2000/svg"
 width="1024.000000pt" height="1024.000000pt" viewBox="0 0 1024.000000 1024.000000"
 preserveAspectRatio="xMidYMid meet">

<g transform="translate(0.000000,1024.000000) scale(0.100000,-0.100000)"
fill="#000000" stroke="none">
<path d="M4783 10229 c-505 -30 -1067 -158 -1563 -353 -80 -32 -248 -109 -375
-172 -1454 -721 -2472 -2075 -2765 -3679 -108 -593 -104 -1266 11 -1865 349
-1829 1664 -3323 3439 -3907 396 -131 854 -217 1280 -243 1271 -76 2511 317
3509 1114 1126 899 1823 2242 1911 3681 124 2052 -977 3965 -2815 4890 -815
410 -1703 590 -2632 534z m887 -153 c1008 -122 1878 -495 2655 -1137 129 -107
507 -485 614 -614 599 -724 972 -1551 1110 -2460 40 -263 46 -362 46 -745 0
-383 -6 -482 -46 -745 -138 -909 -511 -1736 -1110 -2460 -107 -129 -485 -507
-614 -614 -790 -654 -1684 -1031 -2710 -1143 -163 -18 -827 -18 -990 0 -1026
112 -1920 489 -2710 1143 -129 107 -507 485 -614 614 -653 790 -1031 1686
-1143 2710 -18 162 -18 828 0 990 112 1025 489 1920 1143 2710 107 129 485
507 614 614 510 422 1055 723 1670 924 327 107 705 186 1035 216 63 6 131 13
150 15 19 2 199 3 400 1 261 -2 404 -7 500 -19z"/>
<path d="M6434 9841 c-36 -22 -64 -58 -64 -81 0 -9 14 -24 32 -34 l31 -19 -36
-18 c-56 -29 -51 -37 16 -22 34 7 80 12 102 11 40 -2 85 15 85 32 0 4 -24 16
-52 26 -75 24 -108 42 -108 59 0 20 44 20 60 0 17 -20 33 -19 53 3 21 23 21
27 1 46 -21 22 -82 20 -120 -3z"/>
<path d="M6396 9580 c-28 -27 -62 -70 -75 -96 -21 -41 -22 -51 -12 -84 10 -34
169 -240 191 -248 5 -2 22 3 37 12 27 13 30 13 41 -4 16 -26 62 -141 62 -156
0 -19 -52 -33 -150 -40 l-89 -7 -60 -70 c-34 -39 -58 -74 -54 -78 7 -7 418
-169 428 -169 1 0 20 35 41 78 36 71 39 84 40 171 l2 93 50 34 c28 18 70 56
93 83 39 46 44 48 64 35 19 -12 25 -11 60 13 46 31 60 47 74 85 9 24 5 33 -26
70 -42 50 -65 100 -57 122 10 25 -4 19 -92 -40 l-84 -55 0 -61 c0 -71 -23
-128 -70 -173 -22 -21 -31 -24 -34 -14 -76 256 -244 549 -314 549 -7 0 -37
-22 -66 -50z m280 -687 c3 -16 7 -34 10 -40 5 -18 -6 -16 -62 9 l-49 21 40 18
c53 23 54 23 61 -8z"/>
<path d="M5343 9455 c-48 -24 -140 -112 -163 -155 -9 -17 -7 -17 38 -4 27 9
62 12 84 9 45 -8 201 -102 192 -117 -4 -7 -83 -8 -235 -5 -187 3 -233 7 -253
20 -31 21 -86 131 -86 172 0 18 -7 38 -15 45 -36 30 -172 -25 -253 -103 -18
-17 -48 -64 -67 -103 l-34 -72 -96 -7 c-165 -13 -202 -2 -307 90 -34 30 -66
55 -69 55 -4 0 -16 -30 -27 -67 -38 -125 -41 -111 37 -175 86 -71 93 -89 55
-165 -39 -81 -204 -246 -263 -264 -42 -12 -132 -5 -183 16 -13 5 -18 2 -18 -9
0 -57 339 -122 433 -82 62 26 111 106 141 231 37 155 32 145 76 145 38 0 158
22 192 35 9 4 24 29 33 55 l16 49 34 -15 c19 -7 98 -43 176 -79 77 -36 148
-65 155 -65 8 0 24 20 36 44 l21 44 70 7 c38 3 118 3 176 0 103 -7 111 -6 198
24 149 51 170 53 320 25 73 -13 141 -24 150 -24 16 0 143 137 143 153 0 2 -28
15 -62 27 -97 36 -174 76 -288 153 -119 80 -207 123 -265 132 -31 5 -51 1 -92
-20z m-525 -227 c12 -12 17 -58 6 -58 -14 0 -104 43 -104 50 0 21 79 27 98 8z"/>
<path d="M3046 9238 c-3 -29 -6 -87 -6 -129 0 -66 4 -81 26 -115 251 -370 309
-447 315 -423 22 79 0 194 -61 313 -45 89 -249 406 -261 406 -3 0 -9 -24 -13
-52z"/>
<path d="M7445 9072 c-130 -70 -151 -88 -178 -155 -14 -34 -64 -154 -112 -266
-47 -112 -84 -205 -81 -208 3 -3 24 5 48 17 99 51 152 112 230 260 54 102 170
369 166 381 -2 4 -34 -9 -73 -29z"/>
<path d="M2520 8994 c0 -49 3 -98 6 -109 3 -11 26 -32 52 -46 50 -28 93 -91
107 -158 7 -32 6 -34 -16 -27 -200 59 -519 83 -603 45 -26 -12 -27 -16 -21
-58 8 -58 33 -139 53 -169 36 -55 80 -61 262 -34 l115 17 3 30 c2 17 7 33 11
38 10 10 173 -19 181 -34 13 -20 -24 -113 -72 -182 -20 -28 -20 -28 6 -118 14
-49 26 -92 26 -96 0 -13 44 16 210 138 l178 131 -32 56 c-40 72 -91 124 -161
163 l-55 31 0 63 c0 35 -9 91 -19 125 l-19 61 25 10 c24 9 25 13 21 69 -3 40
-11 70 -25 88 -20 26 -23 27 -101 23 -63 -2 -85 1 -106 14 l-26 17 0 -88z
m289 -538 l24 -13 -43 -32 c-24 -17 -45 -29 -48 -27 -2 3 -1 23 3 45 7 45 22
51 64 27z"/>
<path d="M1905 8871 c-46 -19 -66 -118 -35 -175 14 -28 20 -29 75 -11 19 6 20
2 18 -42 -3 -53 -7 -58 43 52 13 28 30 62 40 76 12 18 15 35 10 54 l-7 28 -32
-30 c-67 -63 -127 -91 -127 -60 0 21 14 35 43 42 29 8 34 24 17 56 -12 21 -15
22 -45 10z"/>
<path d="M8354 8461 c-112 -40 -120 -48 -115 -119 3 -40 -32 -96 -213 -340
-75 -102 -129 -165 -143 -168 -12 -3 -38 -1 -57 6 -54 17 -178 102 -207 141
-72 96 -62 211 23 255 18 10 69 32 112 49 91 35 108 55 49 55 -127 0 -360
-128 -410 -224 -20 -39 -20 -120 0 -167 38 -91 163 -187 277 -213 133 -31 207
-17 323 60 72 47 84 60 265 296 44 57 56 67 68 57 11 -9 24 -9 57 0 62 19 137
52 137 62 0 4 -21 50 -46 101 -36 75 -44 100 -41 131 6 44 -1 45 -79 18z"/>
<path d="M4845 8454 c-555 -56 -1009 -202 -1450 -467 -1158 -696 -1781 -2008
-1590 -3346 172 -1200 986 -2213 2129 -2650 217 -83 473 -147 751 -188 172
-25 688 -25 860 0 512 76 942 231 1315 476 156 102 417 305 460 356 7 9 -32
-7 -86 -33 -248 -123 -541 -211 -849 -258 -143 -22 -475 -29 -631 -15 -664 62
-1272 347 -1739 816 -105 105 -187 200 -300 350 -92 121 -235 377 -310 555
-143 339 -215 702 -215 1085 0 470 101 880 320 1303 290 558 769 1008 1350
1268 769 343 1636 323 2412 -56 62 -30 62 -30 33 -5 -417 361 -930 620 -1465
739 -242 53 -375 67 -675 71 -154 2 -298 1 -320 -1z"/>
<path d="M2000 8145 c0 -4 17 -44 39 -89 l38 -83 111 -6 c61 -3 119 -10 130
-16 35 -18 47 -68 46 -186 -1 -120 -19 -203 -55 -248 -11 -15 -54 -43 -95 -63
-41 -19 -74 -39 -74 -44 0 -20 37 -29 76 -19 64 17 242 108 278 143 51 47 62
102 42 196 -37 171 -145 322 -272 382 -57 26 -82 32 -165 36 -55 3 -99 1 -99
-3z"/>
<path d="M8788 8006 c-89 -37 -162 -81 -175 -107 -9 -16 -11 -52 -7 -109 8
-126 10 -133 39 -126 32 8 32 -8 5 -96 -19 -64 -81 -170 -113 -197 -35 -28
-120 7 -390 161 -87 50 -160 88 -164 84 -12 -12 93 -152 182 -242 72 -73 105
-98 165 -126 41 -20 94 -38 117 -42 42 -6 150 11 236 37 26 8 47 12 47 7 0
-11 -86 -88 -171 -154 l-77 -59 34 -66 c19 -36 34 -72 34 -79 0 -8 -27 -51
-61 -97 -98 -135 -107 -209 -34 -274 45 -39 101 -54 202 -53 l82 1 33 -102
c41 -126 45 -129 174 -117 75 8 113 18 213 59 l122 50 106 -39 c58 -22 107
-39 108 -38 1 2 12 45 24 97 29 122 37 137 79 157 33 15 34 18 18 30 -19 13
-178 54 -212 54 -12 0 -27 -15 -39 -38 -18 -33 -39 -47 -184 -119 -90 -46
-173 -83 -185 -83 -18 0 -27 18 -66 128 -25 70 -46 132 -48 139 -2 8 36 12
130 15 122 4 138 6 197 34 l65 30 -39 42 c-74 83 -257 152 -402 152 l-72 0
-22 71 -22 71 54 55 c30 30 133 117 229 193 96 76 185 149 198 163 l24 25 -41
7 c-67 11 -114 -3 -207 -62 -126 -80 -182 -103 -271 -112 -51 -5 -90 -16 -113
-30 -19 -11 -44 -21 -55 -21 -14 0 -5 10 30 35 173 121 215 168 259 292 57
163 78 424 32 423 -6 0 -36 -11 -68 -24z m207 -1205 c45 -17 75 -34 75 -41 0
-12 -50 -30 -85 -30 -26 0 -45 11 -89 51 -31 28 -56 55 -56 59 0 8 90 -15 155
-39z m-329 -66 c10 -54 0 -144 -19 -162 -15 -15 -17 -14 -28 13 -18 41 -15
113 5 152 21 41 33 41 42 -3z"/>
<path d="M1583 7735 c-54 -15 -133 -51 -133 -61 0 -6 122 -164 127 -164 2 0
14 7 26 14 54 36 246 62 262 36 3 -5 -39 -73 -94 -151 l-100 -141 75 -65 c42
-36 79 -62 83 -57 35 39 251 356 251 368 0 44 -160 173 -257 208 -75 27 -173
32 -240 13z"/>
<path d="M975 7262 c-22 -21 -53 -46 -68 -58 l-29 -20 43 -93 42 -92 71 70 70
70 -34 71 c-19 39 -39 75 -45 80 -6 5 -26 -6 -50 -28z"/>
<path d="M1243 7223 c-35 -9 -63 -20 -63 -25 0 -5 26 -41 57 -81 31 -40 57
-73 57 -73 1 -1 30 4 66 12 71 15 160 18 160 6 0 -4 -54 -146 -120 -316 l-120
-308 44 -62 c24 -33 52 -69 63 -78 19 -17 20 -16 54 54 46 96 80 142 118 158
17 7 33 11 35 9 8 -8 -25 -196 -45 -258 -42 -133 -137 -231 -221 -231 -80 0
-144 53 -218 177 -52 88 -76 106 -67 49 17 -104 154 -297 253 -356 53 -32 65
-35 134 -35 84 0 117 16 166 81 26 33 26 35 11 73 l-16 39 49 30 c59 37 70 67
48 128 -15 42 -15 42 14 67 27 24 28 30 28 108 0 96 -12 127 -89 230 l-50 66
75 193 c41 107 73 198 71 204 -7 18 -184 115 -248 136 -70 24 -159 25 -246 3z"/>
<path d="M1779 6294 c-30 -26 -55 -50 -57 -55 -2 -5 4 -32 14 -61 l17 -52 -34
-30 c-19 -17 -45 -38 -58 -47 l-24 -15 32 -67 c36 -76 35 -75 109 -12 46 40
50 54 27 108 l-15 35 61 54 61 54 -32 67 c-18 37 -36 67 -39 67 -4 0 -32 -21
-62 -46z"/>
<path d="M9350 6041 c-41 -15 -159 -56 -263 -91 -103 -35 -186 -69 -184 -74 7
-21 112 -45 198 -45 99 -1 195 21 438 101 102 33 150 53 143 60 -15 15 -204
78 -232 77 -14 0 -59 -13 -100 -28z"/>
<path d="M9095 4678 c-9 -23 -105 -549 -105 -573 0 -19 7 -23 43 -28 23 -4 56
-9 73 -13 l32 -6 17 98 c10 55 21 102 24 105 3 4 132 -17 286 -46 248 -46 281
-50 286 -36 12 32 31 152 25 158 -3 4 -130 30 -281 58 -152 29 -277 54 -280
56 -2 3 5 49 15 104 11 54 18 100 17 102 -2 1 -28 7 -58 13 -30 6 -62 13 -72
16 -9 3 -19 0 -22 -8z"/>
<path d="M597 4669 c-55 -13 -90 -33 -124 -73 -43 -48 -56 -96 -51 -182 6 -92
38 -157 96 -198 65 -46 122 -45 427 4 143 23 261 43 261 43 3 4 -26 170 -30
174 -2 2 -123 -15 -269 -38 -146 -23 -276 -39 -290 -35 -32 8 -52 61 -38 98 9
24 53 48 90 48 38 1 42 13 29 93 -13 86 -14 86 -101 66z"/>
<path d="M857 4101 c-195 -64 -305 -235 -267 -417 25 -119 93 -215 188 -263
170 -87 428 -10 529 158 105 175 35 413 -149 507 -71 36 -213 43 -301 15z
m249 -177 c43 -21 69 -57 84 -117 28 -111 -58 -206 -216 -237 -110 -22 -199
26 -224 120 -22 82 8 153 86 200 79 49 204 65 270 34z"/>
<path d="M8971 4047 c-4 -12 -18 -48 -30 -81 -12 -32 -20 -60 -19 -61 2 -1 97
-36 213 -77 l210 -76 -60 -12 c-117 -24 -458 -100 -460 -102 -5 -6 -55 -149
-55 -157 0 -5 8 -11 18 -14 9 -3 69 -24 132 -47 240 -87 532 -190 538 -190 4
0 18 30 31 68 13 37 26 72 28 78 2 6 -40 27 -94 46 -54 20 -147 54 -208 76
-60 22 -103 43 -95 46 8 2 114 26 235 51 121 26 229 49 241 51 16 4 28 25 49
85 15 44 25 82 22 85 -3 4 -135 53 -294 110 -158 57 -312 113 -341 124 l-53
20 -8 -23z"/>
<path d="M1128 3311 c-170 -92 -311 -170 -314 -174 -7 -7 49 -122 71 -146 11
-11 33 -3 134 52 l121 65 46 -92 c55 -112 53 -126 -38 -190 -35 -25 -76 -56
-93 -70 l-30 -25 44 -85 45 -85 15 25 c9 14 54 51 101 83 87 59 130 107 130
146 0 22 1 22 43 8 149 -52 312 106 264 257 -21 65 -202 395 -218 397 -8 1
-152 -74 -321 -166z m335 -150 c26 -48 47 -96 47 -106 0 -9 -14 -30 -31 -46
-43 -40 -100 -41 -127 -1 -39 57 -95 166 -86 169 5 2 36 19 69 37 33 19 65 35
71 35 6 1 32 -39 57 -88z"/>
<path d="M8730 3409 c-6 -11 -62 -111 -124 -222 -62 -111 -118 -212 -124 -224
-11 -20 1 -28 266 -176 152 -86 298 -167 323 -181 l46 -26 137 245 c75 135
136 247 136 250 0 6 -131 78 -135 74 -2 -2 -42 -74 -90 -159 -48 -85 -90 -158
-94 -163 -8 -8 -116 47 -127 64 -3 5 -1 15 4 22 15 18 152 269 152 278 0 7
-107 69 -120 69 -4 0 -44 -67 -89 -149 l-82 -150 -52 31 c-29 16 -53 31 -55
33 -1 1 38 76 87 166 l91 163 -66 38 c-36 21 -67 38 -69 38 -3 0 -9 -9 -15
-21z"/>
<path d="M1735 2848 c-27 -22 -152 -121 -276 -219 -124 -98 -231 -185 -237
-192 -9 -11 11 -43 99 -153 126 -159 144 -176 218 -211 124 -59 275 -19 409
108 59 57 89 107 108 179 17 68 9 142 -25 207 -14 29 -203 277 -240 315 -3 3
-28 -12 -56 -34z m88 -258 c89 -116 88 -186 -6 -280 -47 -47 -127 -90 -170
-90 -51 0 -95 27 -144 90 -26 34 -48 67 -48 72 0 12 305 257 320 257 6 0 27
-22 48 -49z"/>
<path d="M8410 2777 c-132 -37 -244 -175 -257 -316 -17 -187 141 -378 349
-421 150 -30 314 62 386 218 50 109 28 238 -58 335 l-33 38 -28 -33 c-16 -18
-40 -49 -54 -70 l-26 -36 28 -43 c94 -143 -59 -294 -223 -220 -53 24 -111 76
-146 130 -82 130 29 288 173 247 23 -7 31 0 77 56 29 35 52 67 52 71 0 15 -86
46 -141 52 -30 2 -74 -1 -99 -8z"/>
<path d="M7910 2245 c-98 -30 -213 -139 -239 -225 -14 -47 -14 -120 0 -157 12
-34 64 -90 101 -109 15 -8 54 -14 86 -14 52 0 74 7 182 61 140 68 183 74 209
28 13 -24 12 -30 -6 -65 -11 -21 -39 -54 -62 -71 -52 -40 -113 -45 -155 -12
l-27 21 -65 -57 -65 -58 27 -28 c14 -15 49 -37 77 -49 102 -44 230 -6 338 101
104 104 134 213 85 313 -46 93 -131 137 -227 117 -27 -6 -97 -35 -156 -65
-139 -69 -150 -72 -174 -50 -38 34 -21 88 43 134 48 35 85 38 121 10 l26 -21
63 60 63 59 -30 31 c-28 31 -106 62 -149 60 -12 0 -41 -7 -66 -14z"/>
<path d="M2070 2055 c-429 -222 -396 -202 -374 -227 11 -11 41 -39 68 -61 l49
-41 73 39 73 38 67 -59 c36 -32 77 -67 90 -77 31 -24 30 -30 -7 -113 l-31 -69
68 -62 c38 -34 72 -59 76 -55 4 4 31 70 61 147 30 77 94 238 141 358 l86 218
-63 59 c-34 33 -66 59 -72 58 -5 0 -143 -69 -305 -153z m211 -97 c-5 -13 -25
-59 -44 -102 l-35 -79 -51 48 c-29 27 -48 52 -44 56 11 10 166 98 175 98 4 1
3 -9 -1 -21z"/>
<path d="M7435 1869 c-49 -33 -150 -99 -222 -147 -73 -48 -133 -90 -133 -94 0
-4 35 -60 78 -125 43 -65 133 -202 201 -305 l122 -186 222 145 c122 80 228
151 236 158 12 12 8 23 -25 74 -21 34 -42 61 -46 61 -4 0 -75 -45 -159 -100
-84 -55 -155 -100 -159 -100 -8 0 -80 106 -80 117 1 5 64 49 140 98 77 50 140
92 140 95 0 8 -71 120 -76 120 -2 0 -68 -41 -145 -92 l-142 -92 -23 29 c-27
35 -49 74 -43 79 2 2 72 48 156 103 l152 99 -39 62 c-22 34 -45 62 -52 61 -7
0 -53 -27 -103 -60z"/>
<path d="M2677 1858 c-151 -238 -349 -552 -353 -561 -3 -11 90 -77 127 -92 10
-4 51 53 129 177 l115 182 3 -260 c2 -234 4 -260 20 -270 9 -6 42 -27 74 -47
l56 -36 39 62 c22 34 110 174 197 310 86 136 154 252 151 256 -2 5 -34 27 -70
50 l-66 41 -57 -90 c-31 -50 -85 -134 -119 -187 l-63 -98 0 263 0 262 -70 45
c-39 25 -72 45 -75 45 -2 0 -19 -24 -38 -52z"/>
<path d="M6855 1519 c-16 -4 -114 -46 -217 -91 l-186 -82 13 -31 c101 -234
279 -632 285 -638 4 -4 44 9 88 30 l81 38 -55 120 c-30 66 -53 123 -51 128 4
14 155 77 183 77 31 0 62 -30 99 -95 45 -80 69 -115 80 -115 6 0 48 17 94 37
73 33 81 38 62 47 -21 9 -55 60 -96 140 -26 51 -83 106 -117 113 -26 5 -27 7
-14 32 24 48 27 82 11 137 -35 121 -147 187 -260 153z m74 -184 c26 -34 35
-79 21 -105 -11 -20 -166 -100 -193 -100 -14 0 -82 153 -70 158 4 1 42 18 83
37 93 42 131 44 159 10z"/>
<path d="M3550 1426 c0 -2 -52 -156 -115 -341 -64 -186 -114 -343 -112 -349 2
-5 40 -22 85 -37 l81 -27 43 129 c30 92 47 129 58 128 42 -1 165 -56 184 -82
l20 -27 -22 -112 c-13 -65 -19 -115 -13 -121 4 -4 44 -21 89 -36 l80 -28 0 46
c0 25 8 75 17 111 23 86 23 151 2 184 -22 32 -22 33 8 40 39 10 92 63 111 111
24 64 16 151 -19 204 -35 53 -72 71 -302 148 -200 67 -195 65 -195 59z m248
-234 c47 -16 79 -34 89 -49 31 -47 -10 -133 -64 -133 -43 0 -193 53 -193 67 0
14 38 131 47 146 5 9 17 6 121 -31z"/>
<path d="M6104 1270 c-107 -22 -194 -87 -244 -181 -28 -52 -33 -75 -38 -148
-8 -144 37 -261 132 -349 87 -79 192 -105 311 -78 166 39 258 146 259 303 1
39 -2 74 -5 78 -4 3 -25 2 -48 -4 -23 -6 -59 -16 -81 -21 -39 -10 -40 -12 -40
-53 0 -91 -61 -151 -155 -152 -108 -1 -183 94 -193 242 -4 59 -1 79 17 117 51
104 189 125 260 39 l29 -36 69 17 c101 25 100 25 67 87 -30 54 -82 99 -144
125 -44 19 -142 26 -196 14z"/>
<path d="M4200 1208 c0 -6 -25 -168 -57 -360 -31 -191 -54 -351 -51 -354 6 -6
549 -96 553 -92 4 5 26 151 23 153 -2 1 -84 15 -183 30 -99 16 -183 31 -186
34 -4 3 -2 36 4 74 12 80 -4 76 197 42 80 -14 148 -25 151 -25 6 0 32 141 27
145 -2 1 -50 9 -108 19 -58 9 -133 21 -168 27 l-63 11 7 47 c12 85 -2 81 189
49 94 -15 177 -27 185 -25 10 1 18 25 25 75 11 70 10 73 -9 77 -28 7 -515 85
-527 85 -5 0 -9 -5 -9 -12z"/>
<path d="M4810 761 l0 -371 199 0 c212 0 246 6 315 53 49 33 91 89 117 155 18
46 22 78 22 162 0 135 -23 202 -97 275 -78 78 -112 87 -353 93 l-203 4 0 -371z
m387 186 c55 -29 77 -79 81 -182 3 -79 0 -96 -20 -135 -33 -63 -70 -81 -179
-88 l-89 -5 0 218 0 217 88 -4 c54 -3 99 -11 119 -21z"/>
</g>
</svg>
