<?xml version="1.0" standalone="no"?>
<!DOCTYPE svg PUBLIC "-//W3C//DTD SVG 20010904//EN"
 "http://www.w3.org/TR/2001/REC-SVG-20010904/DTD/svg10.dtd">
<svg version="1.0" xmlns="http://www.w3.org/2000/svg"
 width="900.000000pt" height="500.000000pt" viewBox="0 0 900.000000 500.000000"
 preserveAspectRatio="xMidYMid meet">

<g transform="translate(0.000000,500.000000) scale(0.100000,-0.100000)"
fill="#000000" stroke="none">
<path d="M920 3362 c-149 -55 -287 -164 -374 -295 -90 -137 -135 -309 -115
-436 24 -153 136 -249 299 -259 130 -7 293 52 437 159 l72 54 -118 5 c-98 4
-123 8 -140 24 -41 37 -21 119 34 141 44 19 464 22 498 4 48 -26 48 -44 -2
-317 -43 -234 -52 -256 -118 -268 -40 -8 -80 15 -89 51 -5 22 3 95 22 189 l6
30 -50 -42 c-377 -316 -870 -322 -1026 -14 -25 50 -46 157 -46 241 0 41 -2 72
-4 70 -2 -2 -9 -45 -15 -96 -33 -300 88 -590 327 -784 269 -217 627 -257 939
-104 224 110 386 304 464 555 21 66 24 94 23 240 0 153 -2 171 -28 250 -85
257 -251 445 -489 555 -108 50 -179 66 -312 71 -112 4 -125 2 -195 -24z"/>
<path d="M6014 2980 c-105 -15 -211 -82 -278 -174 -38 -53 -39 -53 -66 -39
-37 18 -74 8 -103 -26 -12 -15 -65 -105 -117 -199 -54 -98 -97 -166 -101 -159
-4 7 -19 71 -33 142 -42 200 -53 234 -81 245 -29 11 -94 -5 -102 -26 -3 -8 24
-133 61 -279 l66 -264 -75 -124 c-41 -69 -75 -130 -75 -136 0 -18 49 -32 85
-25 18 3 42 16 53 27 11 12 104 168 207 347 103 179 188 326 189 327 1 2 2
-41 2 -95 1 -145 44 -245 133 -306 120 -83 313 -86 405 -6 41 36 46 37 46 6 0
-14 10 -32 22 -40 24 -17 73 -21 82 -8 3 5 20 95 38 201 l33 193 -24 19 c-20
17 -40 19 -160 19 -152 0 -174 -7 -186 -60 -11 -52 4 -60 122 -60 l105 0 -6
-25 c-12 -49 -25 -73 -58 -110 -105 -120 -293 -94 -371 50 -33 61 -31 200 4
275 54 115 127 170 238 178 54 3 76 0 119 -18 49 -21 112 -78 112 -102 0 -12
56 -3 76 12 44 37 11 130 -64 180 -77 51 -197 75 -298 60z"/>
<path d="M2418 2932 c-21 -25 -31 -74 -82 -373 -33 -189 -59 -357 -59 -373 0
-52 67 -75 112 -38 19 15 28 55 69 294 26 152 50 279 52 282 3 3 27 -82 54
-189 l48 -194 34 -11 c25 -9 43 -9 67 -1 30 10 47 34 150 213 65 111 117 196
117 188 0 -8 -20 -134 -45 -280 -25 -145 -42 -273 -39 -283 9 -27 50 -40 90
-27 42 14 37 -4 111 433 l58 349 -24 19 c-16 14 -39 19 -78 19 -73 0 -79 -7
-228 -264 -66 -113 -122 -206 -125 -206 -3 0 -29 96 -59 214 -29 118 -59 223
-67 235 -13 17 -26 21 -74 21 -52 0 -61 -3 -82 -28z"/>
<path d="M3390 2761 c-96 -31 -175 -106 -211 -200 -31 -81 -31 -198 0 -269 45
-100 146 -162 266 -162 148 0 261 85 307 232 48 155 -2 307 -123 372 -45 25
-67 30 -134 33 -44 1 -91 -1 -105 -6z m132 -111 c46 -13 105 -77 114 -125 14
-77 -10 -169 -60 -223 -67 -74 -195 -73 -254 3 -44 56 -47 168 -8 244 21 38
78 91 112 101 40 11 53 11 96 0z"/>
<path d="M4143 2750 c-24 -12 -56 -37 -73 -56 -29 -33 -30 -34 -30 -11 0 42
-36 77 -80 77 -39 0 -39 0 -49 -52 -28 -142 -81 -468 -81 -500 0 -41 11 -48
71 -48 29 0 42 6 53 23 8 12 28 98 45 190 33 190 49 224 117 257 46 23 68 25
113 9 67 -23 74 -82 36 -289 -29 -160 -29 -154 -9 -174 19 -20 97 -21 113 -2
15 18 71 327 71 395 0 72 -30 134 -81 168 -56 37 -157 43 -216 13z"/>
<path d="M4745 2761 c-93 -23 -171 -89 -213 -180 -38 -82 -44 -225 -12 -300
28 -64 87 -116 154 -136 108 -32 254 -9 324 51 47 40 59 76 37 110 -19 30 -46
31 -71 3 -52 -59 -197 -82 -265 -43 -39 23 -65 63 -74 117 l-7 37 214 0 c206
0 216 1 234 21 15 16 19 35 17 80 -3 115 -43 186 -127 225 -53 25 -144 31
-211 15z m163 -121 c34 -21 52 -54 52 -96 l0 -24 -160 0 c-88 0 -160 2 -160 5
0 14 30 62 52 82 57 53 157 69 216 33z"/>
<path d="M6742 2750 c-18 -11 -41 -34 -51 -51 l-19 -31 -12 36 c-13 41 -35 56
-79 56 -35 0 -30 18 -86 -314 -38 -230 -41 -256 -23 -274 17 -17 93 -15 107 2
7 8 24 83 40 168 19 101 37 171 55 206 41 80 95 106 157 74 20 -10 41 -16 48
-14 16 5 41 56 41 84 -1 69 -105 102 -178 58z"/>
<path d="M7124 2759 c-52 -15 -126 -71 -161 -123 -96 -140 -88 -357 15 -447
49 -43 92 -59 159 -59 69 0 131 26 172 70 l28 31 7 -32 c9 -46 23 -59 67 -59
49 0 65 23 73 110 4 36 23 158 42 273 20 114 34 214 30 222 -6 18 -67 20 -98
4 -11 -6 -28 -28 -37 -50 l-18 -39 -22 31 c-47 63 -166 95 -257 68z m185 -126
c106 -78 69 -301 -63 -370 -39 -20 -119 -20 -151 1 -46 30 -65 74 -65 151 0
110 55 204 135 233 42 16 112 8 144 -15z"/>
<path d="M7910 2754 c-19 -8 -52 -31 -72 -52 l-38 -36 0 27 c0 38 -32 67 -75
67 -20 0 -38 -6 -40 -12 -3 -7 -25 -133 -50 -280 -51 -302 -51 -308 15 -308
76 0 74 -4 115 240 16 98 32 164 43 179 29 39 66 62 108 68 33 4 45 1 72 -22
46 -39 49 -73 18 -261 -32 -192 -30 -204 39 -204 35 0 48 5 59 23 8 12 28 101
45 197 33 186 41 207 102 248 27 19 43 23 78 19 93 -10 105 -61 67 -283 -14
-84 -26 -156 -26 -162 0 -43 99 -59 124 -19 22 33 78 380 70 434 -9 59 -40
104 -94 131 -85 42 -176 25 -253 -49 -55 -53 -57 -54 -57 -38 0 6 -10 25 -22
41 -42 60 -151 85 -228 52z"/>
<path d="M211 2724 c0 -11 3 -14 6 -6 3 7 2 16 -1 19 -3 4 -6 -2 -5 -13z"/>
<path d="M8649 2284 c-35 -37 -33 -98 4 -130 39 -33 81 -31 118 5 60 60 24
151 -59 151 -28 0 -45 -7 -63 -26z m120 -10 c39 -50 19 -116 -39 -129 -61 -13
-113 50 -89 107 23 55 93 67 128 22z"/>
<path d="M8690 2283 c-1 -4 -5 -27 -9 -50 -5 -24 -4 -43 0 -43 5 0 9 7 9 15 0
21 13 19 28 -6 7 -12 16 -18 19 -15 3 3 0 12 -7 20 -10 13 -9 19 5 32 23 23
15 48 -18 52 -15 2 -27 0 -27 -5z m50 -24 c0 -12 -29 -24 -37 -16 -3 4 -3 13
0 21 6 16 37 11 37 -5z"/>
</g>
</svg>
