<?xml version="1.0" standalone="no"?>
<!DOCTYPE svg PUBLIC "-//W3C//DTD SVG 20010904//EN"
 "http://www.w3.org/TR/2001/REC-SVG-20010904/DTD/svg10.dtd">
<svg version="1.0" xmlns="http://www.w3.org/2000/svg"
 width="909.000000pt" height="909.000000pt" viewBox="0 0 909.000000 909.000000"
 preserveAspectRatio="xMidYMid meet">

<g transform="translate(0.000000,909.000000) scale(0.100000,-0.100000)"
fill="#000000" stroke="none">
<path d="M4195 9079 c-806 -65 -1600 -348 -2245 -801 -424 -297 -841 -714
-1138 -1138 -405 -578 -689 -1313 -776 -2010 -37 -297 -47 -655 -26 -931 110
-1412 862 -2685 2046 -3462 575 -377 1206 -610 1917 -708 193 -27 754 -38 960
-20 951 85 1816 444 2552 1060 116 97 439 420 536 536 615 735 975 1602 1060
2552 18 206 7 768 -20 960 -142 1034 -583 1929 -1305 2648 -773 769 -1778
1230 -2865 1315 -154 11 -547 11 -696 -1z m840 -74 c1064 -124 1990 -577 2730
-1336 772 -792 1214 -1814 1264 -2926 68 -1487 -598 -2894 -1795 -3795 -1059
-798 -2442 -1081 -3744 -767 -1287 310 -2370 1176 -2965 2371 -296 595 -445
1206 -462 1888 -8 367 15 642 87 1000 207 1031 770 1948 1605 2615 704 562
1525 885 2455 965 158 13 660 4 825 -15z"/>
<path d="M4243 8730 c-18 -7 -23 -17 -23 -43 0 -40 15 -57 51 -57 40 0 62 26
55 64 -9 45 -34 55 -83 36z"/>
<path d="M4022 8704 c-43 -30 -21 -94 31 -94 40 0 57 15 57 51 0 52 -44 74
-88 43z"/>
<path d="M5570 8591 c-23 -44 -9 -73 41 -86 21 -5 30 -2 43 16 22 31 20 66 -3
79 -31 16 -69 12 -81 -9z"/>
<path d="M4748 8557 c-13 -9 -21 -73 -43 -312 -14 -165 -27 -313 -28 -330 -2
-29 0 -30 44 -33 l46 -3 12 133 c7 73 13 140 14 148 2 12 14 14 52 12 90 -6
113 -39 166 -231 18 -67 27 -85 46 -92 36 -14 63 -11 70 7 10 28 -68 264 -100
301 l-28 32 39 20 c134 68 135 247 1 317 -26 13 -104 27 -220 38 -37 4 -61 2
-71 -7z m183 -87 c90 -17 127 -77 96 -153 -22 -52 -64 -70 -148 -65 -37 2 -70
6 -72 8 -2 3 1 53 6 113 l10 107 27 0 c15 0 51 -5 81 -10z"/>
<path d="M4088 8543 c-63 -21 -123 -74 -155 -137 -22 -42 -28 -68 -31 -150
-13 -285 126 -438 358 -396 84 15 129 39 177 94 53 60 73 126 73 240 0 187
-70 319 -189 354 -54 17 -177 14 -233 -5z m196 -77 c81 -34 126 -135 126 -285
0 -105 -27 -171 -86 -211 -52 -35 -154 -40 -211 -11 -74 37 -113 134 -113 279
0 88 15 139 53 181 51 55 159 77 231 47z"/>
<path d="M5780 8531 c-23 -44 -9 -73 41 -86 21 -5 30 -2 43 16 22 31 20 66 -3
79 -31 16 -69 12 -81 -9z"/>
<path d="M3653 8483 c-12 -2 -26 -10 -33 -17 -6 -9 -15 -120 -21 -292 -6 -154
-14 -287 -17 -296 -5 -13 -51 47 -177 228 l-170 246 -39 -5 c-21 -3 -43 -10
-49 -16 -11 -11 3 -32 241 -366 l157 -220 43 1 c74 1 72 -4 93 341 25 402 25
406 -28 396z"/>
<path d="M5527 8430 c-58 -15 -89 -34 -136 -85 -107 -116 -153 -344 -93 -462
65 -126 273 -192 407 -129 89 41 147 123 185 257 56 202 0 336 -165 398 -63
24 -149 33 -198 21z m183 -107 c78 -40 104 -91 97 -193 -8 -126 -66 -249 -136
-292 -48 -31 -139 -31 -196 -1 -103 54 -125 130 -85 289 50 195 174 271 320
197z"/>
<path d="M6183 8171 c-45 -21 -76 -61 -95 -123 -17 -57 4 -110 83 -217 60 -81
69 -98 69 -136 0 -73 -62 -116 -138 -96 -48 14 -96 49 -134 100 -16 23 -34 41
-38 41 -13 0 -40 -42 -40 -63 0 -32 86 -112 151 -142 121 -54 232 -21 287 85
39 78 23 141 -68 255 -84 105 -95 158 -45 205 48 45 127 22 192 -55 20 -25 41
-45 45 -45 5 0 16 16 25 35 16 35 16 35 -13 71 -69 85 -198 124 -281 85z"/>
<path d="M2586 8059 c-48 -12 -232 -115 -240 -135 -3 -9 64 -136 160 -304
l165 -289 29 10 c59 21 58 29 -19 164 -39 69 -71 129 -71 133 0 11 86 52 111
52 31 0 77 -27 177 -106 91 -72 94 -73 121 -60 63 33 60 38 -49 125 -109 87
-147 111 -180 111 -25 0 -25 1 1 52 28 54 22 122 -14 177 -42 63 -112 89 -191
70z m88 -108 c24 -21 46 -65 46 -91 0 -39 -34 -81 -94 -116 -32 -19 -60 -34
-61 -32 -9 9 -105 181 -105 188 0 12 89 62 125 71 36 8 64 2 89 -20z"/>
<path d="M6722 7937 c-27 -33 -372 -540 -372 -547 0 -12 50 -50 65 -50 6 0 54
62 106 137 l94 137 6 -89 c4 -50 7 -143 8 -208 1 -117 1 -119 30 -148 31 -31
58 -37 67 -16 2 7 0 105 -5 217 -5 113 -8 206 -6 208 2 3 81 26 174 52 94 26
178 53 186 60 18 15 7 34 -34 55 -23 12 -44 8 -201 -41 -96 -29 -181 -53 -188
-54 -7 0 24 52 68 117 44 64 80 122 80 129 0 13 -46 54 -60 54 -4 0 -12 -6
-18 -13z"/>
<path d="M1915 7618 l-37 -34 117 -326 c64 -179 121 -331 125 -338 11 -17 47
-4 66 25 14 21 12 29 -16 99 -16 42 -30 82 -30 89 1 11 187 168 209 175 6 2
37 -12 68 -31 102 -61 98 -60 132 -31 17 14 31 31 31 37 0 13 -582 360 -611
365 -10 2 -34 -12 -54 -30z m233 -178 c67 -40 124 -76 127 -79 5 -8 -164 -145
-171 -138 -3 3 -20 45 -39 94 -18 48 -45 119 -59 157 l-26 68 23 -14 c12 -8
77 -48 145 -88z"/>
<path d="M7084 7372 c-294 -309 -286 -299 -275 -320 5 -10 64 -69 131 -132
127 -118 136 -123 164 -76 9 15 -4 32 -87 112 -54 52 -97 99 -95 103 2 5 38
45 80 90 l77 82 86 -83 c90 -86 102 -90 129 -44 9 14 -2 30 -71 97 -46 44 -83
83 -83 87 1 4 31 40 68 80 l67 73 103 -97 104 -97 26 26 26 27 -54 56 c-72 74
-208 194 -219 194 -5 0 -85 -80 -177 -178z"/>
<path d="M1637 7372 c-15 -15 -27 -35 -27 -43 0 -11 69 -182 127 -318 5 -11 2
-13 -13 -6 -31 13 -305 95 -318 95 -15 0 -66 -52 -66 -67 0 -6 75 -32 168 -57
92 -26 190 -54 219 -62 41 -12 71 -33 145 -99 51 -47 98 -85 104 -85 13 0 54
43 54 57 0 6 -42 50 -94 98 l-93 86 -78 202 c-43 111 -83 208 -89 215 -10 10
-18 7 -39 -16z"/>
<path d="M3750 6250 l0 -910 -910 0 -910 0 0 -795 0 -795 910 0 910 0 2 -912
3 -913 793 -3 792 -2 0 915 0 915 915 0 915 0 -2 793 -3 792 -912 3 -913 2 0
910 0 910 -795 0 -795 0 0 -910z"/>
<path d="M7431 6909 c-167 -128 -261 -207 -261 -218 0 -10 11 -28 25 -41 l25
-23 119 91 120 92 30 -42 c52 -71 44 -113 -55 -272 -24 -39 -44 -78 -44 -88 0
-9 11 -29 24 -45 31 -35 39 -29 104 85 74 129 82 148 82 186 l0 35 35 -15
c101 -42 215 11 246 115 18 60 -8 129 -87 234 -37 48 -75 92 -84 97 -15 8 -67
-28 -279 -191z m286 64 c97 -121 96 -198 -3 -239 -53 -22 -99 -1 -154 72 l-39
52 86 66 c47 36 88 66 91 66 3 0 11 -8 19 -17z"/>
<path d="M1189 6815 c-54 -40 -111 -120 -134 -184 -19 -55 -19 -156 0 -210 49
-140 213 -253 367 -254 120 0 222 71 286 200 33 66 57 156 46 174 -11 19 -247
169 -266 169 -10 0 -42 -41 -84 -106 l-68 -106 25 -19 c13 -10 26 -19 29 -19
13 0 30 20 65 75 20 33 39 61 40 63 6 7 165 -103 165 -114 0 -27 -32 -99 -60
-134 -88 -111 -270 -106 -391 12 -132 128 -101 314 68 410 29 16 53 33 53 37
0 5 -8 15 -18 24 -29 27 -72 20 -123 -18z"/>
<path d="M7800 6396 c-198 -108 -286 -160 -287 -173 -3 -20 156 -315 173 -320
6 -2 22 5 35 16 l24 20 -64 122 c-34 66 -59 125 -55 129 5 5 52 31 104 59 l96
51 49 -91 c68 -126 65 -123 98 -108 15 7 27 19 27 27 0 8 -23 57 -51 109 -30
55 -48 98 -42 104 4 4 45 28 90 53 l82 44 63 -117 c66 -122 87 -140 121 -104
15 18 12 27 -59 158 -71 132 -99 175 -113 175 -3 0 -134 -69 -291 -154z"/>
<path d="M735 6017 c-42 -64 -42 -63 244 -321 l265 -238 18 22 c32 40 23 64
-49 128 l-67 60 51 129 51 128 96 -4 95 -3 17 35 c33 69 50 66 -492 83 l-212
7 -17 -26z m412 -83 c21 -4 21 -6 -19 -104 -23 -55 -46 -100 -50 -100 -5 0
-66 50 -135 111 l-125 110 154 -6 c84 -3 163 -8 175 -11z"/>
<path d="M8211 5995 c-89 -28 -125 -89 -140 -237 -5 -53 -16 -109 -25 -126
-31 -61 -123 -67 -170 -11 -34 40 -48 99 -44 178 3 65 3 66 -21 63 -52 -5 -64
-29 -59 -117 7 -131 67 -223 165 -251 48 -14 58 -14 107 0 60 18 107 62 124
118 6 18 16 74 21 125 14 131 40 173 108 173 66 0 110 -78 100 -176 -7 -64 4
-74 52 -49 30 15 31 18 31 78 0 44 -7 77 -24 112 -25 54 -95 125 -124 125 -9
0 -26 2 -37 5 -11 2 -40 -2 -64 -10z"/>
<path d="M8488 5498 c-15 -12 -13 -27 16 -163 18 -82 32 -152 30 -153 -1 -2
-130 44 -285 102 -155 58 -296 106 -314 106 -62 0 -62 -10 -13 -238 l44 -207
32 -3 c23 -2 34 2 39 13 3 10 -9 87 -26 172 -18 85 -31 156 -29 158 1 1 127
-44 278 -102 313 -119 370 -129 370 -68 0 19 -45 244 -75 373 -6 25 -41 30
-67 10z"/>
<path d="M542 5458 c-5 -7 -13 -36 -16 -63 -7 -46 -5 -52 21 -76 15 -14 126
-86 246 -159 119 -74 214 -137 210 -141 -5 -3 -125 -32 -267 -62 -194 -42
-265 -62 -280 -76 -14 -14 -21 -38 -24 -80 -4 -56 -3 -60 19 -66 13 -3 161
-28 329 -55 288 -47 306 -49 318 -33 7 10 12 32 10 48 l-3 30 -277 45 c-153
24 -278 47 -278 50 0 3 134 34 297 68 164 34 300 67 305 74 4 7 8 27 8 44 0
30 -10 37 -270 194 -149 90 -269 164 -268 165 2 2 122 -17 268 -41 146 -24
276 -43 290 -41 18 1 27 10 34 35 6 20 6 36 0 42 -9 9 -599 110 -642 110 -11
0 -24 -6 -30 -12z"/>
<path d="M8597 4949 c-17 -10 -18 -20 -12 -109 l7 -98 -128 -7 c-71 -4 -205
-12 -299 -19 l-170 -11 -3 -39 c-2 -21 1 -43 6 -48 7 -7 352 9 543 26 l56 5 7
-96 c4 -53 9 -100 12 -104 9 -15 64 -10 70 6 3 8 -1 121 -10 251 -15 234 -19
254 -51 254 -5 -1 -18 -5 -28 -11z"/>
<path d="M697 4420 c-48 -38 -44 -122 8 -150 56 -30 127 0 138 57 16 84 -80
145 -146 93z"/>
<path d="M8297 4389 c-11 -6 -25 -26 -33 -45 -12 -29 -12 -39 0 -68 26 -64 97
-76 147 -27 37 37 38 79 3 120 -20 24 -34 31 -62 31 -21 0 -45 -5 -55 -11z"/>
<path d="M731 4034 c-173 -35 -319 -68 -324 -73 -13 -13 2 -71 19 -78 8 -3 78
7 155 22 77 15 142 25 146 22 6 -7 65 -289 61 -293 -2 -1 -70 -15 -153 -31
l-150 -29 1 -38 c1 -20 6 -42 11 -47 8 -8 640 112 663 126 14 9 12 48 -4 70
-13 18 -17 18 -146 -8 -74 -15 -134 -26 -136 -24 -1 1 -15 68 -32 150 l-29
147 21 5 c11 3 73 16 136 28 110 22 115 24 118 49 4 32 -13 68 -31 67 -7 -1
-153 -30 -326 -65z"/>
<path d="M8040 4061 c-48 -68 -65 -186 -36 -254 18 -43 67 -84 118 -98 80 -21
142 8 215 101 94 121 116 140 160 140 78 0 123 -68 103 -157 -10 -43 -49 -115
-70 -128 -22 -14 -10 -43 21 -50 25 -6 36 -2 59 20 60 58 94 188 70 275 -17
65 -80 124 -146 138 -93 20 -154 -13 -239 -132 -58 -82 -85 -106 -128 -113
-31 -5 -40 -1 -68 26 -29 29 -31 36 -27 84 3 38 13 66 36 99 38 55 39 64 10
72 -42 11 -56 6 -78 -23z"/>
<path d="M7934 3578 c-38 -46 -65 -110 -71 -171 -9 -96 56 -178 152 -193 70
-10 111 10 207 102 98 95 125 110 174 94 101 -34 98 -162 -5 -269 -40 -42 -42
-46 -25 -58 47 -34 108 3 153 95 67 133 37 262 -73 317 -93 46 -167 25 -260
-76 -62 -66 -119 -109 -148 -109 -35 0 -76 29 -87 61 -16 46 2 102 50 154 46
50 48 62 13 75 -40 15 -50 12 -80 -22z"/>
<path d="M970 3391 c-194 -78 -220 -91 -267 -136 -81 -79 -93 -164 -37 -284
47 -105 114 -150 218 -151 51 0 89 12 288 91 125 50 228 96 228 102 0 7 -9 26
-19 44 l-20 31 -223 -89 c-152 -61 -236 -89 -264 -89 -110 0 -193 151 -135
247 27 43 76 70 299 159 107 42 196 82 199 89 6 18 -25 75 -40 74 -6 0 -109
-40 -227 -88z"/>
<path d="M7816 3095 c-84 -30 -160 -122 -193 -234 -42 -147 40 -283 225 -373
104 -50 202 -62 277 -34 89 35 178 161 192 273 10 86 -18 156 -90 227 -123
122 -298 182 -411 141z m220 -129 c122 -58 194 -141 194 -223 0 -78 -72 -183
-136 -199 -76 -19 -235 33 -316 105 -53 47 -82 111 -76 172 7 68 51 136 108
167 59 31 128 24 226 -22z"/>
<path d="M1165 2698 c-148 -95 -271 -180 -273 -189 -2 -9 8 -29 20 -44 l24
-27 184 117 c102 65 209 133 239 152 l53 34 -30 -53 c-168 -294 -272 -487
-272 -506 0 -33 27 -80 50 -87 30 -10 569 331 569 360 1 27 -33 69 -50 63 -8
-4 -108 -67 -224 -141 -115 -74 -211 -134 -213 -132 -2 1 60 114 138 251 82
146 140 259 140 275 0 34 -40 93 -65 97 -12 1 -131 -68 -290 -170z"/>
<path d="M7435 2503 c-64 -33 -205 -198 -205 -240 0 -14 72 -75 253 -214 138
-106 260 -193 271 -193 26 -1 63 49 48 66 -6 8 -58 50 -116 93 -58 44 -106 85
-106 91 0 6 16 27 35 47 53 55 85 57 234 14 l126 -36 28 29 c47 52 42 55 -128
100 -84 23 -131 31 -160 27 l-41 -6 4 35 c10 83 -28 151 -103 185 -49 23 -100
23 -140 2z m105 -98 c40 -21 60 -53 60 -96 0 -34 -12 -57 -72 -139 l-17 -22
-89 69 -90 70 42 52 c63 80 106 97 166 66z"/>
<path d="M1675 2220 c-66 -26 -141 -84 -187 -145 -104 -138 -91 -301 36 -429
66 -68 164 -124 190 -109 30 16 226 205 226 216 0 7 -38 53 -85 102 -71 76
-86 88 -101 79 -42 -25 -40 -39 15 -100 28 -32 50 -63 49 -69 -5 -18 -124
-125 -140 -125 -27 0 -98 59 -128 106 -38 61 -45 110 -26 178 45 155 228 262
360 212 80 -31 154 -124 171 -219 8 -42 31 -49 58 -19 62 68 -69 269 -208 321
-71 27 -162 27 -230 1z"/>
<path d="M7082 2110 c-66 -33 -109 -76 -144 -143 -17 -32 -23 -59 -23 -117 0
-65 4 -85 32 -141 41 -83 148 -189 228 -225 143 -66 299 -4 375 148 35 72 38
100 9 129 -28 28 -40 21 -59 -39 -45 -139 -168 -203 -283 -148 -89 43 -185
158 -207 247 -25 98 41 201 146 228 27 7 57 15 67 18 25 6 21 28 -9 52 -36 28
-60 26 -132 -9z"/>
<path d="M2270 1687 c-69 -45 -200 -131 -293 -192 -92 -60 -167 -115 -167
-121 0 -7 16 -22 35 -34 l34 -21 75 50 c41 28 78 51 81 51 5 0 190 -136 217
-159 4 -4 -4 -41 -17 -84 -32 -99 -31 -109 6 -136 26 -19 33 -21 44 -10 7 8
58 163 114 344 l101 330 -35 33 c-19 17 -43 32 -52 32 -10 0 -74 -37 -143 -83z
m106 -69 c-52 -168 -89 -278 -93 -278 -12 0 -173 125 -171 132 3 8 260 187
270 188 4 0 1 -19 -6 -42z"/>
<path d="M6325 1512 c-63 -22 -215 -105 -238 -129 -20 -23 -32 3 165 -342 73
-129 140 -239 149 -244 12 -8 39 3 113 43 209 116 274 239 215 412 -29 86 -61
137 -123 196 -82 78 -178 100 -281 64z m129 -83 c57 -16 121 -81 163 -166 65
-131 46 -229 -59 -301 -64 -43 -109 -65 -118 -55 -10 11 -237 413 -245 434 -4
12 10 24 56 49 97 51 133 58 203 39z"/>
<path d="M2751 1506 c-15 -18 -301 -567 -301 -578 0 -8 59 -48 72 -48 4 0 37
59 74 130 37 72 72 130 76 130 25 0 90 -44 103 -70 18 -35 19 -76 4 -209 -13
-112 -10 -122 42 -140 27 -9 31 -8 40 16 16 42 24 295 10 321 -11 20 -9 22 16
22 78 0 137 40 167 112 47 111 -7 194 -184 283 -99 50 -103 51 -119 31z m118
-121 c27 -13 61 -39 76 -57 22 -26 26 -39 22 -71 -8 -58 -49 -97 -104 -97 -43
0 -153 45 -153 63 0 15 94 187 103 187 4 0 29 -11 56 -25z"/>
<path d="M5765 1261 c-125 -47 -151 -60 -153 -78 -4 -26 202 -592 223 -612 12
-12 36 -6 172 43 87 32 164 64 171 70 16 16 -1 66 -22 66 -8 0 -70 -20 -137
-45 -67 -25 -123 -44 -124 -42 -7 8 -75 202 -75 212 0 7 48 31 108 53 98 36
107 41 104 63 -6 50 -20 51 -136 8 -59 -22 -109 -39 -111 -37 -6 7 -65 175
-65 185 0 6 55 31 123 56 100 37 123 49 125 67 4 26 -14 50 -37 49 -9 -1 -83
-27 -166 -58z"/>
<path d="M3280 1258 c-6 -13 -60 -156 -120 -318 l-110 -295 22 -18 c12 -10 32
-17 45 -15 22 3 35 32 138 308 63 168 115 311 115 318 0 11 -56 42 -75 42 -3
0 -10 -10 -15 -22z"/>
<path d="M3703 1142 c-7 -4 -98 -140 -202 -301 -205 -315 -207 -321 -132 -321
34 0 39 4 80 70 23 38 47 73 52 76 10 6 216 -39 255 -56 19 -7 22 -20 29 -94
7 -93 14 -104 69 -113 35 -5 36 -5 36 25 0 30 -65 598 -75 659 -3 18 -14 37
-23 41 -27 14 -77 21 -89 14z m46 -289 c10 -87 17 -159 17 -160 -1 -2 -52 10
-113 25 l-110 27 91 144 c49 79 92 139 94 133 2 -6 11 -82 21 -169z"/>
<path d="M5171 1099 c-52 -10 -101 -24 -108 -32 -11 -10 -2 -69 52 -336 36
-178 67 -326 69 -329 10 -9 77 9 82 23 3 7 -7 74 -22 149 -15 75 -25 139 -22
142 3 2 28 7 55 10 78 10 103 -9 189 -143 l75 -115 37 7 c43 8 52 13 52 26 0
11 -118 192 -147 225 -10 12 -30 29 -46 39 l-27 17 39 43 c43 47 56 86 46 145
-9 56 -43 101 -95 128 -54 27 -101 27 -229 1z m165 -74 c59 -24 82 -109 43
-159 -27 -34 -52 -47 -121 -61 l-57 -12 -16 69 c-8 38 -18 89 -21 112 l-6 43
58 10 c83 15 81 15 120 -2z"/>
<path d="M4122 1052 c-9 -6 -17 -96 -29 -329 -9 -176 -13 -327 -10 -336 7 -19
71 -24 82 -7 4 6 13 130 21 277 8 147 15 267 17 269 1 1 58 -118 127 -265 68
-146 135 -276 147 -288 25 -26 93 -32 111 -10 11 14 47 651 37 667 -3 5 -24
10 -45 10 -33 0 -40 -4 -44 -22 -3 -13 -10 -133 -16 -268 -6 -135 -13 -246
-14 -247 -1 -1 -20 37 -41 85 -104 232 -214 451 -233 461 -24 13 -91 14 -110
3z"/>
</g>
</svg>
