<?xml version="1.0" standalone="no"?>
<!DOCTYPE svg PUBLIC "-//W3C//DTD SVG 20010904//EN"
 "http://www.w3.org/TR/2001/REC-SVG-20010904/DTD/svg10.dtd">
<svg version="1.0" xmlns="http://www.w3.org/2000/svg"
 width="224.000000pt" height="224.000000pt" viewBox="0 0 224.000000 224.000000"
 preserveAspectRatio="xMidYMid meet">

<g transform="translate(0.000000,224.000000) scale(0.100000,-0.100000)"
fill="#000000" stroke="none">
<path d="M75 1826 c-16 -7 -39 -23 -50 -36 -20 -22 -20 -36 -20 -670 0 -634 0
-648 20 -670 46 -52 12 -50 1095 -50 1083 0 1049 -2 1095 50 20 22 20 36 20
670 0 634 0 648 -20 670 -46 52 -11 50 -1097 50 -818 -1 -1019 -3 -1043 -14z
m1438 -427 c38 -10 39 -10 32 -52 -11 -73 -15 -79 -38 -72 -12 3 -52 9 -88 12
-59 5 -69 3 -88 -16 -31 -31 -15 -52 69 -97 116 -60 149 -121 116 -209 -33
-86 -125 -135 -252 -135 -79 0 -164 18 -171 35 -2 8 1 39 7 69 l11 56 32 -17
c18 -9 62 -18 99 -21 82 -6 121 13 116 55 -2 21 -17 34 -73 64 -75 41 -121 84
-131 124 -19 75 42 163 136 195 61 22 164 26 223 9z m-1045 -16 c16 -14 29
-55 52 -166 17 -82 35 -158 39 -169 5 -14 25 27 78 164 l71 183 81 3 c45 2 81
-1 81 -5 0 -4 -53 -131 -117 -281 l-117 -273 -85 3 -85 3 -66 240 -67 239 -59
28 c-32 15 -67 28 -76 28 -9 0 -20 5 -23 10 -4 6 43 10 133 10 119 0 143 -3
160 -17z m622 6 c0 -20 -92 -543 -96 -551 -7 -10 -141 -10 -148 0 -4 7 79 518
89 550 6 15 155 17 155 1z m894 -166 c22 -98 49 -224 62 -280 l22 -103 -74 0
-74 0 -6 40 -7 40 -97 0 -98 0 -16 -40 -16 -40 -81 0 c-64 0 -80 3 -76 13 49
129 225 508 244 525 21 19 35 22 101 22 l77 0 39 -177z"/>
<path d="M1800 1148 c-19 -51 -36 -96 -38 -100 -2 -4 24 -8 57 -8 l61 0 -6 28
c-3 15 -13 59 -22 99 l-17 72 -35 -91z"/>
</g>
</svg>
